<svg width="32" height="32" viewBox="0 0 32 32" fill="none" xmlns="http://www.w3.org/2000/svg">
<path d="M26 5C25.9992 4.2046 25.6828 3.44202 25.1204 2.87959C24.558 2.31716 23.7954 2.00083 23 2H9C8.2046 2.00083 7.44202 2.31716 6.87959 2.87959C6.31716 3.44202 6.00083 4.2046 6 5V27C6.00083 27.7954 6.31716 28.558 6.87959 29.1204C7.44202 29.6828 8.2046 29.9992 9 30H23C23.7954 29.9992 24.558 29.6828 25.1204 29.1204C25.6828 28.558 25.9992 27.7954 26 27V5ZM10.5 27C10.2033 27 9.91332 26.912 9.66665 26.7472C9.41997 26.5824 9.22771 26.3481 9.11418 26.074C9.00065 25.7999 8.97094 25.4983 9.02882 25.2074C9.0867 24.9164 9.22956 24.6491 9.43934 24.4393C9.64912 24.2296 9.91639 24.0867 10.2074 24.0288C10.4983 23.9709 10.7999 24.0007 11.074 24.1142C11.3481 24.2277 11.5824 24.42 11.7472 24.6666C11.912 24.9133 12 25.2033 12 25.5C12 25.8978 11.842 26.2794 11.5607 26.5607C11.2794 26.842 10.8978 27 10.5 27ZM10.5 22C10.2033 22 9.91332 21.912 9.66665 21.7472C9.41997 21.5824 9.22771 21.3481 9.11418 21.074C9.00065 20.7999 8.97094 20.4983 9.02882 20.2074C9.0867 19.9164 9.22956 19.6491 9.43934 19.4393C9.64912 19.2296 9.91639 19.0867 10.2074 19.0288C10.4983 18.9709 10.7999 19.0007 11.074 19.1142C11.3481 19.2277 11.5824 19.42 11.7472 19.6666C11.912 19.9133 12 20.2033 12 20.5C12 20.8978 11.842 21.2794 11.5607 21.5607C11.2794 21.842 10.8978 22 10.5 22ZM10.5 17C10.2033 17 9.91332 16.912 9.66665 16.7472C9.41997 16.5824 9.22771 16.3481 9.11418 16.074C9.00065 15.7999 8.97094 15.4983 9.02882 15.2074C9.0867 14.9164 9.22956 14.6491 9.43934 14.4393C9.64912 14.2296 9.91639 14.0867 10.2074 14.0288C10.4983 13.9709 10.7999 14.0006 11.074 14.1142C11.3481 14.2277 11.5824 14.42 11.7472 14.6666C11.912 14.9133 12 15.2033 12 15.5C12 15.8978 11.842 16.2794 11.5607 16.5607C11.2794 16.842 10.8978 17 10.5 17ZM16 27C15.7033 27 15.4133 26.912 15.1666 26.7472C14.92 26.5824 14.7277 26.3481 14.6142 26.074C14.5006 25.7999 14.4709 25.4983 14.5288 25.2074C14.5867 24.9164 14.7296 24.6491 14.9393 24.4393C15.1491 24.2296 15.4164 24.0867 15.7074 24.0288C15.9983 23.9709 16.2999 24.0007 16.574 24.1142C16.8481 24.2277 17.0824 24.42 17.2472 24.6666C17.412 24.9133 17.5 25.2033 17.5 25.5C17.5 25.8978 17.342 26.2794 17.0607 26.5607C16.7794 26.842 16.3978 27 16 27ZM16 22C15.7033 22 15.4133 21.912 15.1666 21.7472C14.92 21.5824 14.7277 21.3481 14.6142 21.074C14.5006 20.7999 14.4709 20.4983 14.5288 20.2074C14.5867 19.9164 14.7296 19.6491 14.9393 19.4393C15.1491 19.2296 15.4164 19.0867 15.7074 19.0288C15.9983 18.9709 16.2999 19.0007 16.574 19.1142C16.8481 19.2277 17.0824 19.42 17.2472 19.6666C17.412 19.9133 17.5 20.2033 17.5 20.5C17.5 20.8978 17.342 21.2794 17.0607 21.5607C16.7794 21.842 16.3978 22 16 22ZM16 17C15.7033 17 15.4133 16.912 15.1666 16.7472C14.92 16.5824 14.7277 16.3481 14.6142 16.074C14.5006 15.7999 14.4709 15.4983 14.5288 15.2074C14.5867 14.9164 14.7296 14.6491 14.9393 14.4393C15.1491 14.2296 15.4164 14.0867 15.7074 14.0288C15.9983 13.9709 16.2999 14.0006 16.574 14.1142C16.8481 14.2277 17.0824 14.42 17.2472 14.6666C17.412 14.9133 17.5 15.2033 17.5 15.5C17.5 15.8978 17.342 16.2794 17.0607 16.5607C16.7794 16.842 16.3978 17 16 17ZM23 25.5C23 25.8978 22.842 26.2794 22.5607 26.5607C22.2794 26.842 21.8978 27 21.5 27C21.1022 27 20.7206 26.842 20.4393 26.5607C20.158 26.2794 20 25.8978 20 25.5V20.5C20 20.1022 20.158 19.7206 20.4393 19.4393C20.7206 19.158 21.1022 19 21.5 19C21.8978 19 22.2794 19.158 22.5607 19.4393C22.842 19.7206 23 20.1022 23 20.5V25.5ZM21.5 17C21.2033 17 20.9133 16.912 20.6666 16.7472C20.42 16.5824 20.2277 16.3481 20.1142 16.074C20.0007 15.7999 19.9709 15.4983 20.0288 15.2074C20.0867 14.9164 20.2296 14.6491 20.4393 14.4393C20.6491 14.2296 20.9164 14.0867 21.2074 14.0288C21.4983 13.9709 21.7999 14.0006 22.074 14.1142C22.3481 14.2277 22.5824 14.42 22.7472 14.6666C22.912 14.9133 23 15.2033 23 15.5C23 15.8978 22.842 16.2794 22.5607 16.5607C22.2794 16.842 21.8978 17 21.5 17ZM22.7069 10.7069C22.5194 10.8944 22.2652 10.9999 22 11H10C9.73478 11 9.48043 10.8946 9.29289 10.7071C9.10536 10.5196 9 10.2652 9 10V6C9 5.73478 9.10536 5.48043 9.29289 5.29289C9.48043 5.10536 9.73478 5 10 5H22C22.2652 5 22.5196 5.10536 22.7071 5.29289C22.8946 5.48043 23 5.73478 23 6V10C22.9999 10.2652 22.8944 10.5194 22.7069 10.7069Z" fill="#A2C880"/>
<path d="M26 5C25.9992 4.2046 25.6828 3.44202 25.1204 2.87959C24.558 2.31716 23.7954 2.00083 23 2H9C8.2046 2.00083 7.44202 2.31716 6.87959 2.87959C6.31716 3.44202 6.00083 4.2046 6 5V27C6.00083 27.7954 6.31716 28.558 6.87959 29.1204C7.44202 29.6828 8.2046 29.9992 9 30H23C23.7954 29.9992 24.558 29.6828 25.1204 29.1204C25.6828 28.558 25.9992 27.7954 26 27V5ZM10.5 27C10.2033 27 9.91332 26.912 9.66665 26.7472C9.41997 26.5824 9.22771 26.3481 9.11418 26.074C9.00065 25.7999 8.97094 25.4983 9.02882 25.2074C9.0867 24.9164 9.22956 24.6491 9.43934 24.4393C9.64912 24.2296 9.91639 24.0867 10.2074 24.0288C10.4983 23.9709 10.7999 24.0007 11.074 24.1142C11.3481 24.2277 11.5824 24.42 11.7472 24.6666C11.912 24.9133 12 25.2033 12 25.5C12 25.8978 11.842 26.2794 11.5607 26.5607C11.2794 26.842 10.8978 27 10.5 27ZM10.5 22C10.2033 22 9.91332 21.912 9.66665 21.7472C9.41997 21.5824 9.22771 21.3481 9.11418 21.074C9.00065 20.7999 8.97094 20.4983 9.02882 20.2074C9.0867 19.9164 9.22956 19.6491 9.43934 19.4393C9.64912 19.2296 9.91639 19.0867 10.2074 19.0288C10.4983 18.9709 10.7999 19.0007 11.074 19.1142C11.3481 19.2277 11.5824 19.42 11.7472 19.6666C11.912 19.9133 12 20.2033 12 20.5C12 20.8978 11.842 21.2794 11.5607 21.5607C11.2794 21.842 10.8978 22 10.5 22ZM10.5 17C10.2033 17 9.91332 16.912 9.66665 16.7472C9.41997 16.5824 9.22771 16.3481 9.11418 16.074C9.00065 15.7999 8.97094 15.4983 9.02882 15.2074C9.0867 14.9164 9.22956 14.6491 9.43934 14.4393C9.64912 14.2296 9.91639 14.0867 10.2074 14.0288C10.4983 13.9709 10.7999 14.0006 11.074 14.1142C11.3481 14.2277 11.5824 14.42 11.7472 14.6666C11.912 14.9133 12 15.2033 12 15.5C12 15.8978 11.842 16.2794 11.5607 16.5607C11.2794 16.842 10.8978 17 10.5 17ZM16 27C15.7033 27 15.4133 26.912 15.1666 26.7472C14.92 26.5824 14.7277 26.3481 14.6142 26.074C14.5006 25.7999 14.4709 25.4983 14.5288 25.2074C14.5867 24.9164 14.7296 24.6491 14.9393 24.4393C15.1491 24.2296 15.4164 24.0867 15.7074 24.0288C15.9983 23.9709 16.2999 24.0007 16.574 24.1142C16.8481 24.2277 17.0824 24.42 17.2472 24.6666C17.412 24.9133 17.5 25.2033 17.5 25.5C17.5 25.8978 17.342 26.2794 17.0607 26.5607C16.7794 26.842 16.3978 27 16 27ZM16 22C15.7033 22 15.4133 21.912 15.1666 21.7472C14.92 21.5824 14.7277 21.3481 14.6142 21.074C14.5006 20.7999 14.4709 20.4983 14.5288 20.2074C14.5867 19.9164 14.7296 19.6491 14.9393 19.4393C15.1491 19.2296 15.4164 19.0867 15.7074 19.0288C15.9983 18.9709 16.2999 19.0007 16.574 19.1142C16.8481 19.2277 17.0824 19.42 17.2472 19.6666C17.412 19.9133 17.5 20.2033 17.5 20.5C17.5 20.8978 17.342 21.2794 17.0607 21.5607C16.7794 21.842 16.3978 22 16 22ZM16 17C15.7033 17 15.4133 16.912 15.1666 16.7472C14.92 16.5824 14.7277 16.3481 14.6142 16.074C14.5006 15.7999 14.4709 15.4983 14.5288 15.2074C14.5867 14.9164 14.7296 14.6491 14.9393 14.4393C15.1491 14.2296 15.4164 14.0867 15.7074 14.0288C15.9983 13.9709 16.2999 14.0006 16.574 14.1142C16.8481 14.2277 17.0824 14.42 17.2472 14.6666C17.412 14.9133 17.5 15.2033 17.5 15.5C17.5 15.8978 17.342 16.2794 17.0607 16.5607C16.7794 16.842 16.3978 17 16 17ZM23 25.5C23 25.8978 22.842 26.2794 22.5607 26.5607C22.2794 26.842 21.8978 27 21.5 27C21.1022 27 20.7206 26.842 20.4393 26.5607C20.158 26.2794 20 25.8978 20 25.5V20.5C20 20.1022 20.158 19.7206 20.4393 19.4393C20.7206 19.158 21.1022 19 21.5 19C21.8978 19 22.2794 19.158 22.5607 19.4393C22.842 19.7206 23 20.1022 23 20.5V25.5ZM21.5 17C21.2033 17 20.9133 16.912 20.6666 16.7472C20.42 16.5824 20.2277 16.3481 20.1142 16.074C20.0007 15.7999 19.9709 15.4983 20.0288 15.2074C20.0867 14.9164 20.2296 14.6491 20.4393 14.4393C20.6491 14.2296 20.9164 14.0867 21.2074 14.0288C21.4983 13.9709 21.7999 14.0006 22.074 14.1142C22.3481 14.2277 22.5824 14.42 22.7472 14.6666C22.912 14.9133 23 15.2033 23 15.5C23 15.8978 22.842 16.2794 22.5607 16.5607C22.2794 16.842 21.8978 17 21.5 17ZM22.7069 10.7069C22.5194 10.8944 22.2652 10.9999 22 11H10C9.73478 11 9.48043 10.8946 9.29289 10.7071C9.10536 10.5196 9 10.2652 9 10V6C9 5.73478 9.10536 5.48043 9.29289 5.29289C9.48043 5.10536 9.73478 5 10 5H22C22.2652 5 22.5196 5.10536 22.7071 5.29289C22.8946 5.48043 23 5.73478 23 6V10C22.9999 10.2652 22.8944 10.5194 22.7069 10.7069Z" fill="url(#paint0_linear_77_154)"/>
<defs>
<linearGradient id="paint0_linear_77_154" x1="3.6" y1="7.6" x2="29.1638" y2="8.59578" gradientUnits="userSpaceOnUse">
<stop stop-color="#C8DFB0"/>
<stop offset="0.844544" stop-color="#A2C880"/>
</linearGradient>
</defs>
</svg>
