<svg width="64" height="64" viewBox="0 0 64 64" fill="none" xmlns="http://www.w3.org/2000/svg">
<g clip-path="url(#clip0_97_277)">
<g filter="url(#filter0_ddii_97_277)">
<path d="M39.7576 4.84851H24.2425C13.5315 4.84851 4.84851 13.5315 4.84851 24.2425V39.7576C4.84851 50.4686 13.5315 59.1515 24.2425 59.1515H39.7576C50.4686 59.1515 59.1515 50.4686 59.1515 39.7576V24.2425C59.1515 13.5315 50.4686 4.84851 39.7576 4.84851Z" fill="#5F903C" fill-opacity="0.2"/>
<path d="M41.697 21.3334C41.6962 20.5621 41.3894 19.8226 40.844 19.2773C40.2987 18.7319 39.5592 18.4251 38.7879 18.4243H25.2121C24.4408 18.4251 23.7013 18.7319 23.156 19.2773C22.6106 19.8226 22.3038 20.5621 22.303 21.3334V42.6667C22.3038 43.438 22.6106 44.1775 23.156 44.7229C23.7013 45.2682 24.4408 45.5751 25.2121 45.5758H38.7879C39.5592 45.5751 40.2987 45.2682 40.844 44.7229C41.3894 44.1775 41.6962 43.438 41.697 42.6667V21.3334ZM26.6667 42.6667C26.379 42.6667 26.0978 42.5814 25.8585 42.4216C25.6194 42.2618 25.4329 42.0346 25.3229 41.7688C25.2127 41.503 25.1839 41.2105 25.2401 40.9285C25.2962 40.6463 25.4348 40.3871 25.6381 40.1836C25.8416 39.9803 26.1008 39.8417 26.3829 39.7856C26.665 39.7294 26.9575 39.7583 27.2233 39.8684C27.4891 39.9785 27.7163 40.1649 27.8761 40.404C28.0359 40.6433 28.1212 40.9245 28.1212 41.2122C28.1212 41.5979 27.968 41.968 27.6952 42.2408C27.4225 42.5135 27.0524 42.6667 26.6667 42.6667ZM26.6667 37.8183C26.379 37.8183 26.0978 37.7329 25.8585 37.5731C25.6194 37.4133 25.4329 37.1861 25.3229 36.9203C25.2127 36.6545 25.1839 36.3621 25.2401 36.08C25.2962 35.7978 25.4348 35.5386 25.6381 35.3352C25.8416 35.1318 26.1008 34.9932 26.3829 34.9371C26.665 34.8809 26.9575 34.9098 27.2233 35.0199C27.4891 35.13 27.7163 35.3164 27.8761 35.5556C28.0359 35.7948 28.1212 36.076 28.1212 36.3637C28.1212 36.7495 27.968 37.1195 27.6952 37.3923C27.4225 37.665 27.0524 37.8183 26.6667 37.8183ZM26.6667 32.9698C26.379 32.9698 26.0978 32.8844 25.8585 32.7246C25.6194 32.5648 25.4329 32.3376 25.3229 32.0718C25.2127 31.806 25.1839 31.5136 25.2401 31.2315C25.2962 30.9493 25.4348 30.6901 25.6381 30.4867C25.8416 30.2833 26.1008 30.1448 26.3829 30.0886C26.665 30.0325 26.9575 30.0613 27.2233 30.1714C27.4891 30.2815 27.7163 30.468 27.8761 30.7071C28.0359 30.9463 28.1212 31.2275 28.1212 31.5152C28.1212 31.901 27.968 32.271 27.6952 32.5438C27.4225 32.8166 27.0524 32.9698 26.6667 32.9698ZM32 42.6667C31.7123 42.6667 31.4311 42.5814 31.1919 42.4216C30.9527 42.2618 30.7663 42.0346 30.6562 41.7688C30.546 41.503 30.5172 41.2105 30.5734 40.9285C30.6295 40.6463 30.7681 40.3871 30.9715 40.1836C31.1749 39.9803 31.4341 39.8417 31.7163 39.7856C31.9984 39.7294 32.2908 39.7583 32.5566 39.8684C32.8224 39.9785 33.0496 40.1649 33.2094 40.404C33.3692 40.6433 33.4546 40.9245 33.4546 41.2122C33.4546 41.5979 33.3013 41.968 33.0286 42.2408C32.7558 42.5135 32.3858 42.6667 32 42.6667ZM32 37.8183C31.7123 37.8183 31.4311 37.7329 31.1919 37.5731C30.9527 37.4133 30.7663 37.1861 30.6562 36.9203C30.546 36.6545 30.5172 36.3621 30.5734 36.08C30.6295 35.7978 30.7681 35.5386 30.9715 35.3352C31.1749 35.1318 31.4341 34.9932 31.7163 34.9371C31.9984 34.8809 32.2908 34.9098 32.5566 35.0199C32.8224 35.13 33.0496 35.3164 33.2094 35.5556C33.3692 35.7948 33.4546 36.076 33.4546 36.3637C33.4546 36.7495 33.3013 37.1195 33.0286 37.3923C32.7558 37.665 32.3858 37.8183 32 37.8183ZM32 32.9698C31.7123 32.9698 31.4311 32.8844 31.1919 32.7246C30.9527 32.5648 30.7663 32.3376 30.6562 32.0718C30.546 31.806 30.5172 31.5136 30.5734 31.2315C30.6295 30.9493 30.7681 30.6901 30.9715 30.4867C31.1749 30.2833 31.4341 30.1448 31.7163 30.0886C31.9984 30.0325 32.2908 30.0613 32.5566 30.1714C32.8224 30.2815 33.0496 30.468 33.2094 30.7071C33.3692 30.9463 33.4546 31.2275 33.4546 31.5152C33.4546 31.901 33.3013 32.271 33.0286 32.5438C32.7558 32.8166 32.3858 32.9698 32 32.9698ZM38.7879 41.2122C38.7879 41.5979 38.6347 41.968 38.3619 42.2408C38.0891 42.5135 37.7191 42.6667 37.3333 42.6667C36.9476 42.6667 36.5776 42.5135 36.3048 42.2408C36.032 41.968 35.8788 41.5979 35.8788 41.2122V36.3637C35.8788 35.978 36.032 35.6079 36.3048 35.3352C36.5776 35.0624 36.9476 34.9092 37.3333 34.9092C37.7191 34.9092 38.0891 35.0624 38.3619 35.3352C38.6347 35.6079 38.7879 35.978 38.7879 36.3637V41.2122ZM37.3333 32.9698C37.0456 32.9698 36.7644 32.8844 36.5252 32.7246C36.2861 32.5648 36.0996 32.3376 35.9895 32.0718C35.8795 31.806 35.8506 31.5136 35.9067 31.2315C35.9629 30.9493 36.1014 30.6901 36.3048 30.4867C36.5082 30.2833 36.7674 30.1448 37.0496 30.0886C37.3317 30.0325 37.6242 30.0613 37.89 30.1714C38.1557 30.2815 38.3829 30.468 38.5427 30.7071C38.7026 30.9463 38.7879 31.2275 38.7879 31.5152C38.7879 31.901 38.6347 32.271 38.3619 32.5438C38.0891 32.8166 37.7191 32.9698 37.3333 32.9698ZM38.5037 26.8674C38.3219 27.0492 38.0754 27.1515 37.8182 27.1516H26.1818C25.9247 27.1516 25.678 27.0494 25.4962 26.8676C25.3143 26.6857 25.2121 26.4391 25.2121 26.1819V22.3031C25.2121 22.0459 25.3143 21.7992 25.4962 21.6174C25.678 21.4356 25.9247 21.3334 26.1818 21.3334H37.8182C38.0754 21.3334 38.322 21.4356 38.5039 21.6174C38.6857 21.7992 38.7879 22.0459 38.7879 22.3031V26.1819C38.7878 26.4391 38.6855 26.6856 38.5037 26.8674Z" fill="#A2C880"/>
<path d="M41.697 21.3334C41.6962 20.5621 41.3894 19.8226 40.844 19.2773C40.2987 18.7319 39.5592 18.4251 38.7879 18.4243H25.2121C24.4408 18.4251 23.7013 18.7319 23.156 19.2773C22.6106 19.8226 22.3038 20.5621 22.303 21.3334V42.6667C22.3038 43.438 22.6106 44.1775 23.156 44.7229C23.7013 45.2682 24.4408 45.5751 25.2121 45.5758H38.7879C39.5592 45.5751 40.2987 45.2682 40.844 44.7229C41.3894 44.1775 41.6962 43.438 41.697 42.6667V21.3334ZM26.6667 42.6667C26.379 42.6667 26.0978 42.5814 25.8585 42.4216C25.6194 42.2618 25.4329 42.0346 25.3229 41.7688C25.2127 41.503 25.1839 41.2105 25.2401 40.9285C25.2962 40.6463 25.4348 40.3871 25.6381 40.1836C25.8416 39.9803 26.1008 39.8417 26.3829 39.7856C26.665 39.7294 26.9575 39.7583 27.2233 39.8684C27.4891 39.9785 27.7163 40.1649 27.8761 40.404C28.0359 40.6433 28.1212 40.9245 28.1212 41.2122C28.1212 41.5979 27.968 41.968 27.6952 42.2408C27.4225 42.5135 27.0524 42.6667 26.6667 42.6667ZM26.6667 37.8183C26.379 37.8183 26.0978 37.7329 25.8585 37.5731C25.6194 37.4133 25.4329 37.1861 25.3229 36.9203C25.2127 36.6545 25.1839 36.3621 25.2401 36.08C25.2962 35.7978 25.4348 35.5386 25.6381 35.3352C25.8416 35.1318 26.1008 34.9932 26.3829 34.9371C26.665 34.8809 26.9575 34.9098 27.2233 35.0199C27.4891 35.13 27.7163 35.3164 27.8761 35.5556C28.0359 35.7948 28.1212 36.076 28.1212 36.3637C28.1212 36.7495 27.968 37.1195 27.6952 37.3923C27.4225 37.665 27.0524 37.8183 26.6667 37.8183ZM26.6667 32.9698C26.379 32.9698 26.0978 32.8844 25.8585 32.7246C25.6194 32.5648 25.4329 32.3376 25.3229 32.0718C25.2127 31.806 25.1839 31.5136 25.2401 31.2315C25.2962 30.9493 25.4348 30.6901 25.6381 30.4867C25.8416 30.2833 26.1008 30.1448 26.3829 30.0886C26.665 30.0325 26.9575 30.0613 27.2233 30.1714C27.4891 30.2815 27.7163 30.468 27.8761 30.7071C28.0359 30.9463 28.1212 31.2275 28.1212 31.5152C28.1212 31.901 27.968 32.271 27.6952 32.5438C27.4225 32.8166 27.0524 32.9698 26.6667 32.9698ZM32 42.6667C31.7123 42.6667 31.4311 42.5814 31.1919 42.4216C30.9527 42.2618 30.7663 42.0346 30.6562 41.7688C30.546 41.503 30.5172 41.2105 30.5734 40.9285C30.6295 40.6463 30.7681 40.3871 30.9715 40.1836C31.1749 39.9803 31.4341 39.8417 31.7163 39.7856C31.9984 39.7294 32.2908 39.7583 32.5566 39.8684C32.8224 39.9785 33.0496 40.1649 33.2094 40.404C33.3692 40.6433 33.4546 40.9245 33.4546 41.2122C33.4546 41.5979 33.3013 41.968 33.0286 42.2408C32.7558 42.5135 32.3858 42.6667 32 42.6667ZM32 37.8183C31.7123 37.8183 31.4311 37.7329 31.1919 37.5731C30.9527 37.4133 30.7663 37.1861 30.6562 36.9203C30.546 36.6545 30.5172 36.3621 30.5734 36.08C30.6295 35.7978 30.7681 35.5386 30.9715 35.3352C31.1749 35.1318 31.4341 34.9932 31.7163 34.9371C31.9984 34.8809 32.2908 34.9098 32.5566 35.0199C32.8224 35.13 33.0496 35.3164 33.2094 35.5556C33.3692 35.7948 33.4546 36.076 33.4546 36.3637C33.4546 36.7495 33.3013 37.1195 33.0286 37.3923C32.7558 37.665 32.3858 37.8183 32 37.8183ZM32 32.9698C31.7123 32.9698 31.4311 32.8844 31.1919 32.7246C30.9527 32.5648 30.7663 32.3376 30.6562 32.0718C30.546 31.806 30.5172 31.5136 30.5734 31.2315C30.6295 30.9493 30.7681 30.6901 30.9715 30.4867C31.1749 30.2833 31.4341 30.1448 31.7163 30.0886C31.9984 30.0325 32.2908 30.0613 32.5566 30.1714C32.8224 30.2815 33.0496 30.468 33.2094 30.7071C33.3692 30.9463 33.4546 31.2275 33.4546 31.5152C33.4546 31.901 33.3013 32.271 33.0286 32.5438C32.7558 32.8166 32.3858 32.9698 32 32.9698ZM38.7879 41.2122C38.7879 41.5979 38.6347 41.968 38.3619 42.2408C38.0891 42.5135 37.7191 42.6667 37.3333 42.6667C36.9476 42.6667 36.5776 42.5135 36.3048 42.2408C36.032 41.968 35.8788 41.5979 35.8788 41.2122V36.3637C35.8788 35.978 36.032 35.6079 36.3048 35.3352C36.5776 35.0624 36.9476 34.9092 37.3333 34.9092C37.7191 34.9092 38.0891 35.0624 38.3619 35.3352C38.6347 35.6079 38.7879 35.978 38.7879 36.3637V41.2122ZM37.3333 32.9698C37.0456 32.9698 36.7644 32.8844 36.5252 32.7246C36.2861 32.5648 36.0996 32.3376 35.9895 32.0718C35.8795 31.806 35.8506 31.5136 35.9067 31.2315C35.9629 30.9493 36.1014 30.6901 36.3048 30.4867C36.5082 30.2833 36.7674 30.1448 37.0496 30.0886C37.3317 30.0325 37.6242 30.0613 37.89 30.1714C38.1557 30.2815 38.3829 30.468 38.5427 30.7071C38.7026 30.9463 38.7879 31.2275 38.7879 31.5152C38.7879 31.901 38.6347 32.271 38.3619 32.5438C38.0891 32.8166 37.7191 32.9698 37.3333 32.9698ZM38.5037 26.8674C38.3219 27.0492 38.0754 27.1515 37.8182 27.1516H26.1818C25.9247 27.1516 25.678 27.0494 25.4962 26.8676C25.3143 26.6857 25.2121 26.4391 25.2121 26.1819V22.3031C25.2121 22.0459 25.3143 21.7992 25.4962 21.6174C25.678 21.4356 25.9247 21.3334 26.1818 21.3334H37.8182C38.0754 21.3334 38.322 21.4356 38.5039 21.6174C38.6857 21.7992 38.7879 22.0459 38.7879 22.3031V26.1819C38.7878 26.4391 38.6855 26.6856 38.5037 26.8674Z" fill="url(#paint0_linear_97_277)"/>
<path d="M39.7576 5.33337H24.2425C13.7993 5.33337 5.33337 13.7993 5.33337 24.2425V39.7576C5.33337 50.2008 13.7993 58.6667 24.2425 58.6667H39.7576C50.2008 58.6667 58.6667 50.2008 58.6667 39.7576V24.2425C58.6667 13.7993 50.2008 5.33337 39.7576 5.33337Z" stroke="#A2C880" stroke-opacity="0.2"/>
</g>
</g>
<defs>
<filter id="filter0_ddii_97_277" x="-1.16663" y="-1.16663" width="66.3333" height="66.3334" filterUnits="userSpaceOnUse" color-interpolation-filters="sRGB">
<feFlood flood-opacity="0" result="BackgroundImageFix"/>
<feColorMatrix in="SourceAlpha" type="matrix" values="0 0 0 0 0 0 0 0 0 0 0 0 0 0 0 0 0 0 127 0" result="hardAlpha"/>
<feOffset/>
<feGaussianBlur stdDeviation="1.5"/>
<feComposite in2="hardAlpha" operator="out"/>
<feColorMatrix type="matrix" values="0 0 0 0 0.635294 0 0 0 0 0.784314 0 0 0 0 0.501961 0 0 0 0.25 0"/>
<feBlend mode="normal" in2="BackgroundImageFix" result="effect1_dropShadow_97_277"/>
<feColorMatrix in="SourceAlpha" type="matrix" values="0 0 0 0 0 0 0 0 0 0 0 0 0 0 0 0 0 0 127 0" result="hardAlpha"/>
<feOffset/>
<feGaussianBlur stdDeviation="3"/>
<feComposite in2="hardAlpha" operator="out"/>
<feColorMatrix type="matrix" values="0 0 0 0 0.635294 0 0 0 0 0.784314 0 0 0 0 0.501961 0 0 0 0.04 0"/>
<feBlend mode="normal" in2="effect1_dropShadow_97_277" result="effect2_dropShadow_97_277"/>
<feBlend mode="normal" in="SourceGraphic" in2="effect2_dropShadow_97_277" result="shape"/>
<feColorMatrix in="SourceAlpha" type="matrix" values="0 0 0 0 0 0 0 0 0 0 0 0 0 0 0 0 0 0 127 0" result="hardAlpha"/>
<feOffset dy="2"/>
<feGaussianBlur stdDeviation="2"/>
<feComposite in2="hardAlpha" operator="arithmetic" k2="-1" k3="1"/>
<feColorMatrix type="matrix" values="0 0 0 0 1 0 0 0 0 1 0 0 0 0 1 0 0 0 0.16 0"/>
<feBlend mode="normal" in2="shape" result="effect3_innerShadow_97_277"/>
<feColorMatrix in="SourceAlpha" type="matrix" values="0 0 0 0 0 0 0 0 0 0 0 0 0 0 0 0 0 0 127 0" result="hardAlpha"/>
<feOffset dy="-2"/>
<feGaussianBlur stdDeviation="2"/>
<feComposite in2="hardAlpha" operator="arithmetic" k2="-1" k3="1"/>
<feColorMatrix type="matrix" values="0 0 0 0 0 0 0 0 0 0 0 0 0 0 0 0 0 0 0.25 0"/>
<feBlend mode="normal" in2="effect3_innerShadow_97_277" result="effect4_innerShadow_97_277"/>
</filter>
<linearGradient id="paint0_linear_97_277" x1="19.9758" y1="23.8546" x2="44.7649" y2="24.8202" gradientUnits="userSpaceOnUse">
<stop stop-color="#C8DFB0"/>
<stop offset="0.844544" stop-color="#A2C880"/>
</linearGradient>
<clipPath id="clip0_97_277">
<rect width="64" height="64" fill="white"/>
</clipPath>
</defs>
</svg>
