<svg width="9" height="11" viewBox="0 0 9 11" fill="none" xmlns="http://www.w3.org/2000/svg">
<path d="M1.22801 11V7.295H0.358008V6.185H1.22801V5.105H0.358008V3.995H1.22801V0.289999H3.58301L4.75301 3.995H6.11801V0.289999H7.78301V3.995H8.63801V5.105H7.78301V6.185H8.63801V7.295H7.78301V11H5.41301L4.21301 7.295H2.89301V11H1.22801ZM2.89301 6.185H3.88301L3.55301 5.105H2.86301L2.89301 6.185ZM6.16301 8.66H6.23801L6.17801 7.295H5.77301L6.16301 8.66ZM2.83301 3.995H3.25301L2.81801 2.555H2.75801L2.83301 3.995ZM5.45801 6.185H6.14801L6.11801 5.105H5.11301L5.45801 6.185Z" fill="#F7FAF3"/>
</svg>
