<svg width="20" height="20" viewBox="0 0 20 20" fill="none" xmlns="http://www.w3.org/2000/svg">
<g clip-path="url(#clip0_36_825)">
<path d="M10.1531 10.2699L8.45312 5.85039C8.42761 5.78407 8.3826 5.72703 8.32403 5.68681C8.26545 5.64658 8.19606 5.62504 8.125 5.62504C8.05394 5.62504 7.98455 5.64658 7.92597 5.68681C7.8674 5.72703 7.82239 5.78407 7.79688 5.85039L6.09688 10.2699C6.07922 10.3158 6.05212 10.3575 6.01733 10.3923C5.98254 10.4271 5.94084 10.4542 5.89492 10.4719L1.47539 12.1719C1.40907 12.1974 1.35203 12.2424 1.3118 12.301C1.27158 12.3596 1.25004 12.4289 1.25004 12.5C1.25004 12.5711 1.27158 12.6405 1.3118 12.699C1.35203 12.7576 1.40907 12.8026 1.47539 12.8281L5.89492 14.5281C5.94084 14.5458 5.98254 14.5729 6.01733 14.6077C6.05212 14.6425 6.07922 14.6842 6.09688 14.7301L7.79688 19.1496C7.82239 19.2159 7.8674 19.273 7.92597 19.3132C7.98455 19.3534 8.05394 19.375 8.125 19.375C8.19606 19.375 8.26545 19.3534 8.32403 19.3132C8.3826 19.273 8.42761 19.2159 8.45312 19.1496L10.1531 14.7301C10.1708 14.6842 10.1979 14.6425 10.2327 14.6077C10.2675 14.5729 10.3092 14.5458 10.3551 14.5281L14.7746 12.8281C14.8409 12.8026 14.898 12.7576 14.9382 12.699C14.9784 12.6405 15 12.5711 15 12.5C15 12.4289 14.9784 12.3596 14.9382 12.301C14.898 12.2424 14.8409 12.1974 14.7746 12.1719L10.3551 10.4719C10.3092 10.4542 10.2675 10.4271 10.2327 10.3923C10.1979 10.3575 10.1708 10.3158 10.1531 10.2699ZM4.21875 2.65625L3.4375 0.625L2.65625 2.65625L0.625 3.4375L2.65625 4.21875L3.4375 6.25L4.21875 4.21875L6.25 3.4375L4.21875 2.65625ZM16.6668 4.5832L15.625 1.875L14.5832 4.5832L11.875 5.625L14.5832 6.6668L15.625 9.375L16.6668 6.6668L19.375 5.625L16.6668 4.5832Z" stroke="#A2C880" stroke-width="1.5" stroke-linecap="round" stroke-linejoin="round"/>
</g>
<defs>
<clipPath id="clip0_36_825">
<rect width="20" height="20" fill="white"/>
</clipPath>
</defs>
</svg>
