<svg width="20" height="20" viewBox="0 0 20 20" fill="none" xmlns="http://www.w3.org/2000/svg">
<path d="M17.6172 14.6094C16.9969 13.9844 15.4945 13.0723 14.7656 12.7047C13.8164 12.2266 13.7383 12.1875 12.9922 12.7418C12.4945 13.1117 12.1637 13.4422 11.5813 13.318C10.9988 13.1938 9.73321 12.4934 8.62501 11.3887C7.51681 10.284 6.77579 8.98164 6.65118 8.40117C6.52657 7.8207 6.86251 7.49375 7.22892 6.99492C7.74532 6.2918 7.70626 6.17461 7.26485 5.22539C6.92071 4.48711 5.98204 2.99883 5.3547 2.38164C4.6836 1.71875 4.6836 1.83594 4.25118 2.01563C3.89914 2.16375 3.5614 2.3438 3.2422 2.55352C2.6172 2.96875 2.27032 3.31367 2.02774 3.83203C1.78517 4.35039 1.67618 5.56563 2.92892 7.84141C4.18165 10.1172 5.06056 11.2809 6.8797 13.0949C8.69884 14.909 10.0977 15.8844 12.1426 17.0313C14.6723 18.448 15.6426 18.1719 16.1625 17.9297C16.6824 17.6875 17.0289 17.3438 17.4449 16.7188C17.6552 16.4001 17.8356 16.0627 17.984 15.7109C18.1641 15.2801 18.2813 15.2801 17.6172 14.6094Z" stroke="#A2C880" stroke-width="1.5" stroke-miterlimit="10"/>
</svg>
